<svg width="104" height="157" viewBox="0 0 104 157" fill="none" xmlns="http://www.w3.org/2000/svg">
<g id="Group" opacity="0.3">
<path id="Vector" d="M47.5819 0.179419C17.255 2.00949 1.3072 19.2645 0 50.3757H30.5884C30.8498 39.6567 37.1244 31.5521 48.1048 30.2449C59.0852 29.1992 69.5428 31.8136 72.6801 39.1339C76.0788 47.2385 68.4971 56.6503 64.8369 60.5719C58.0395 67.8922 47.059 73.3824 41.3074 81.2256C35.8172 89.0687 34.7714 99.2649 34.2485 111.814H61.1768C61.4382 103.709 61.9611 96.1276 65.6212 91.1602C71.6343 83.0556 80.5233 79.3955 87.8436 72.8595C94.9024 66.8464 102.484 59.5261 103.53 48.0228C107.974 14.2971 80.2618 -1.91209 47.5819 0.179419Z" fill="#fff"/>
<path id="Vector_2" d="M48.3662 156.781C57.7515 156.781 65.3598 149.29 65.3598 140.049C65.3598 130.808 57.7515 123.317 48.3662 123.317C38.981 123.317 31.3727 130.808 31.3727 140.049C31.3727 149.29 38.981 156.781 48.3662 156.781Z" fill="#fff"

/>
</g>
</svg>
